{
  "accessors": [
    {
      "bufferView": 2,
      "componentType": 5126,
      "count": 344,
      "max": [
        -1434.8896484375,
        441.50421142578125,
        -269.32232666015625
      ],
      "min": [
        -2153.67724609375,
        -5.7645478248596191,
        -988.1097412109375
      ],
      "type": "VEC3"
    },
    {
      "bufferView": 2,
      "byteOffset": 4128,
      "componentType": 5126,
      "count": 344,
      "max": [
        0.99981063604354858,
        1,
        1
      ],
      "min": [
        -0.99981063604354858,
        -2.745604797382839e-05,
        -0.99981063604354858
      ],
      "type": "VEC3"
    },
    {
      "bufferView": 3,
      "componentType": 5126,
      "count": 344,
      "max": [
        0.73731118440628052,
        0.9999428391456604,
        0.89140301942825317,
        1
      ],
      "min": [
        -0.38576203584671021,
        -0.99390202760696411,
        -0.13206773996353149,
        1
      ],
      "type": "VEC4"
    },
    {
      "bufferView": 1,
      "componentType": 5126,
      "count": 344,
      "max": [
        0.784720778465271,
        0.65754997730255127
      ],
      "min": [
        0.02720034122467041,
        0.050628662109375
      ],
      "type": "VEC2"
    },
    {
      "bufferView": 0,
      "componentType": 5125,
      "count": 828,
      "max": [
        343
      ],
      "min": [
        0
      ],
      "type": "SCALAR"
    },
    {
      "bufferView": 2,
      "byteOffset": 8256,
      "componentType": 5126,
      "count": 522,
      "max": [
        -1606.7899169921875,
        602.94818115234375,
        -167.0279541015625
      ],
      "min": [
        -1981.77685546875,
        441.50421142578125,
        -816.20947265625
      ],
      "type": "VEC3"
    },
    {
      "bufferView": 2,
      "byteOffset": 14520,
      "componentType": 5126,
      "count": 522,
      "max": [
        0.99981075525283813,
        1,
        0.99981087446212769
      ],
      "min": [
        -0.99981075525283813,
        -1,
        -0.99981093406677246
      ],
      "type": "VEC3"
    },
    {
      "bufferView": 3,
      "byteOffset": 5504,
      "componentType": 5126,
      "count": 522,
      "max": [
        0.99981057643890381,
        1,
        0.99609488248825073,
        1
      ],
      "min": [
        -0.99998617172241211,
        -0.99989032745361328,
        -0.99609112739562988,
        1
      ],
      "type": "VEC4"
    },
    {
      "bufferView": 1,
      "byteOffset": 2752,
      "componentType": 5126,
      "count": 522,
      "max": [
        0.97078162431716919,
        0.98291301727294922
      ],
      "min": [
        0.035750389099121094,
        0.057690918445587158
      ],
      "type": "VEC2"
    },
    {
      "bufferView": 0,
      "byteOffset": 3312,
      "componentType": 5125,
      "count": 1284,
      "max": [
        521
      ],
      "min": [
        0
      ],
      "type": "SCALAR"
    },
    {
      "bufferView": 4,
      "componentType": 5126,
      "count": 877,
      "max": [
        29.166666030883789
      ],
      "min": [
        0.041666667908430099
      ],
      "type": "SCALAR"
    },
    {
      "bufferView": 5,
      "componentType": 5126,
      "count": 877,
      "max": [
        105.79842376708984,
        0,
        943.44207763671875
      ],
      "min": [
        -722.035888671875,
        0,
        -1174.9486083984375
      ],
      "type": "VEC3"
    },
    {
      "bufferView": 4,
      "byteOffset": 3508,
      "componentType": 5126,
      "count": 2,
      "max": [
        29.166666030883789
      ],
      "min": [
        0.041666667908430099
      ],
      "type": "SCALAR"
    },
    {
      "bufferView": 5,
      "byteOffset": 10524,
      "componentType": 5126,
      "count": 2,
      "max": [
        1,
        1,
        1
      ],
      "min": [
        1,
        1,
        1
      ],
      "type": "VEC3"
    },
    {
      "bufferView": 4,
      "byteOffset": 3516,
      "componentType": 5126,
      "count": 877,
      "max": [
        29.166666030883789
      ],
      "min": [
        0.041666667908430099
      ],
      "type": "SCALAR"
    },
    {
      "bufferView": 6,
      "componentType": 5126,
      "count": 877,
      "max": [
        0,
        0.30925101041793823,
        0,
        1
      ],
      "min": [
        0,
        -0.31262636184692383,
        0,
        0.94987618923187256
      ],
      "type": "VEC4"
    }
  ],
  "animations": [
    {
      "channels": [
        {
          "sampler": 0,
          "target": {
            "node": 8,
            "path": "translation"
          }
        },
        {
          "sampler": 1,
          "target": {
            "node": 8,
            "path": "scale"
          }
        },
        {
          "sampler": 2,
          "target": {
            "node": 8,
            "path": "rotation"
          }
        }
      ],
      "name": "Take 001",
      "samplers": [
        {
          "input": 10,
          "interpolation": "LINEAR",
          "output": 11
        },
        {
          "input": 12,
          "interpolation": "LINEAR",
          "output": 13
        },
        {
          "input": 14,
          "interpolation": "LINEAR",
          "output": 15
        }
      ]
    }
  ],
  "asset": {
    "extras": {
      "author": "tylerlherring (https://sketchfab.com/tylerlherring)",
      "license": "CC-BY-4.0 (http://creativecommons.org/licenses/by/4.0/)",
      "source": "https://sketchfab.com/models/06241ec1b6e3480eb88819369ceb3d11",
      "title": "Cannon Tower"
    },
    "generator": "Sketchfab-3.19.5",
    "version": "2.0"
  },
  "bufferViews": [
    {
      "buffer": 0,
      "byteLength": 8448,
      "byteOffset": 0,
      "name": "floatBufferViews",
      "target": 34963
    },
    {
      "buffer": 0,
      "byteLength": 6928,
      "byteOffset": 8448,
      "byteStride": 8,
      "name": "floatBufferViews",
      "target": 34962
    },
    {
      "buffer": 0,
      "byteLength": 20784,
      "byteOffset": 15376,
      "byteStride": 12,
      "name": "floatBufferViews",
      "target": 34962
    },
    {
      "buffer": 0,
      "byteLength": 13856,
      "byteOffset": 36160,
      "byteStride": 16,
      "name": "floatBufferViews",
      "target": 34962
    },
    {
      "buffer": 0,
      "byteLength": 7024,
      "byteOffset": 50016,
      "name": "floatBufferViews"
    },
    {
      "buffer": 0,
      "byteLength": 10548,
      "byteOffset": 57040,
      "byteStride": 12,
      "name": "floatBufferViews"
    },
    {
      "buffer": 0,
      "byteLength": 14032,
      "byteOffset": 67588,
      "byteStride": 16,
      "name": "floatBufferViews"
    }
  ],
  "buffers": [
    {
      "byteLength": 81620,
      "uri": "canon.bin"
    }
  ],
  "images": [
    {
      "uri": "canon_textures/lambert49_metallicRoughness.png"
    },
    {
      "uri": "canon_textures/lambert49_normal.png"
    },
    {
      "uri": "canon_textures/lambert49_baseColor.png"
    }
  ],
  "materials": [
    {
      "doubleSided": true,
      "emissiveFactor": [
        0,
        0,
        0
      ],
      "name": "lambert49",
      "normalTexture": {
        "index": 1,
        "scale": 0.55000000000000004,
        "texCoord": 0
      },
      "occlusionTexture": {
        "index": 0,
        "strength": 1,
        "texCoord": 0
      },
      "pbrMetallicRoughness": {
        "baseColorFactor": [
          1,
          1,
          1,
          1
        ],
        "baseColorTexture": {
          "index": 2,
          "texCoord": 0
        },
        "metallicFactor": 1,
        "metallicRoughnessTexture": {
          "index": 0,
          "texCoord": 0
        },
        "roughnessFactor": 1
      }
    }
  ],
  "meshes": [
    {
      "name": "tower2_lambert49_0",
      "primitives": [
        {
          "attributes": {
            "NORMAL": 1,
            "POSITION": 0,
            "TANGENT": 2,
            "TEXCOORD_0": 3
          },
          "indices": 4,
          "material": 0,
          "mode": 4
        }
      ]
    },
    {
      "name": "turret_lambert49_0",
      "primitives": [
        {
          "attributes": {
            "NORMAL": 6,
            "POSITION": 5,
            "TANGENT": 7,
            "TEXCOORD_0": 8
          },
          "indices": 9,
          "material": 0,
          "mode": 4
        }
      ]
    }
  ],
  "nodes": [
    {
      "children": [
        1
      ],
      "name": "RootNode (gltf orientation matrix)",
      "rotation": [
        -0.70710678118654746,
        -0,
        -0,
        0.70710678118654757
      ]
    },
    {
      "children": [
        2
      ],
      "name": "RootNode (model correction matrix)"
    },
    {
      "children": [
        3
      ],
      "matrix": [
        1,
        0,
        0,
        0,
        0,
        0,
        1,
        0,
        0,
        -1,
        0,
        0,
        0,
        0,
        0,
        1
      ],
      "name": "7debac0a8cfc49f3b0a1991d58a0556c.fbx"
    },
    {
      "children": [
        4
      ],
      "name": ""
    },
    {
      "children": [
        5
      ],
      "name": "RootNode"
    },
    {
      "children": [
        6,
        8
      ],
      "name": "tower_lo"
    },
    {
      "children": [
        7
      ],
      "name": "tower2"
    },
    {
      "mesh": 0,
      "name": "tower2_lambert49_0"
    },
    {
      "children": [
        9
      ],
      "name": "turret"
    },
    {
      "mesh": 1,
      "name": "turret_lambert49_0"
    }
  ],
  "samplers": [
    {
      "magFilter": 9729,
      "minFilter": 9987,
      "wrapS": 10497,
      "wrapT": 10497
    }
  ],
  "scene": 0,
  "scenes": [
    {
      "name": "OSG_Scene",
      "nodes": [
        0
      ]
    }
  ],
  "textures": [
    {
      "sampler": 0,
      "source": 0
    },
    {
      "sampler": 0,
      "source": 1
    },
    {
      "sampler": 0,
      "source": 2
    }
  ]
}

