{
  "accessors": [
    {
      "bufferView": 1,
      "componentType": 5126,
      "count": 32,
      "max": [
        -3.75,
        0.75,
        0.75
      ],
      "min": [
        -6.75,
        -0.75,
        -0.75
      ],
      "type": "VEC3"
    },
    {
      "bufferView": 1,
      "byteOffset": 384,
      "componentType": 5126,
      "count": 32,
      "max": [
        1,
        1,
        1
      ],
      "min": [
        -1,
        -1,
        -1
      ],
      "type": "VEC3"
    },
    {
      "bufferView": 0,
      "componentType": 5125,
      "count": 60,
      "max": [
        31
      ],
      "min": [
        0
      ],
      "type": "SCALAR"
    },
    {
      "bufferView": 1,
      "byteOffset": 768,
      "componentType": 5126,
      "count": 32,
      "max": [
        0.75,
        0.75,
        0.75
      ],
      "min": [
        -2.25,
        -0.75,
        -0.75
      ],
      "type": "VEC3"
    },
    {
      "bufferView": 1,
      "byteOffset": 1152,
      "componentType": 5126,
      "count": 32,
      "max": [
        1,
        1,
        1
      ],
      "min": [
        -1,
        -1,
        -1
      ],
      "type": "VEC3"
    },
    {
      "bufferView": 0,
      "byteOffset": 240,
      "componentType": 5125,
      "count": 60,
      "max": [
        31
      ],
      "min": [
        0
      ],
      "type": "SCALAR"
    },
    {
      "bufferView": 1,
      "byteOffset": 1536,
      "componentType": 5126,
      "count": 270,
      "max": [
        2.25,
        9.75,
        0.75
      ],
      "min": [
        -11.25,
        0.75,
        -0.75
      ],
      "type": "VEC3"
    },
    {
      "bufferView": 1,
      "byteOffset": 4776,
      "componentType": 5126,
      "count": 270,
      "max": [
        1,
        1,
        1
      ],
      "min": [
        -1,
        -1,
        -1
      ],
      "type": "VEC3"
    },
    {
      "bufferView": 0,
      "byteOffset": 480,
      "componentType": 5125,
      "count": 696,
      "max": [
        269
      ],
      "min": [
        0
      ],
      "type": "SCALAR"
    },
    {
      "bufferView": 1,
      "byteOffset": 8016,
      "componentType": 5126,
      "count": 64,
      "max": [
        5.25,
        6.75,
        0.75
      ],
      "min": [
        2.25,
        0.75,
        -0.75
      ],
      "type": "VEC3"
    },
    {
      "bufferView": 1,
      "byteOffset": 8784,
      "componentType": 5126,
      "count": 64,
      "max": [
        1,
        1,
        1
      ],
      "min": [
        -1,
        -1,
        -1
      ],
      "type": "VEC3"
    },
    {
      "bufferView": 0,
      "byteOffset": 3264,
      "componentType": 5125,
      "count": 132,
      "max": [
        63
      ],
      "min": [
        0
      ],
      "type": "SCALAR"
    },
    {
      "bufferView": 1,
      "byteOffset": 9552,
      "componentType": 5126,
      "count": 24,
      "max": [
        2.25,
        11.25,
        0.75
      ],
      "min": [
        0.75,
        9.75,
        -0.75
      ],
      "type": "VEC3"
    },
    {
      "bufferView": 1,
      "byteOffset": 9840,
      "componentType": 5126,
      "count": 24,
      "max": [
        1,
        1,
        1
      ],
      "min": [
        -1,
        -1,
        -1
      ],
      "type": "VEC3"
    },
    {
      "bufferView": 0,
      "byteOffset": 3792,
      "componentType": 5125,
      "count": 36,
      "max": [
        23
      ],
      "min": [
        0
      ],
      "type": "SCALAR"
    },
    {
      "bufferView": 1,
      "byteOffset": 10128,
      "componentType": 5126,
      "count": 24,
      "max": [
        -6.75,
        11.25,
        0.75
      ],
      "min": [
        -8.25,
        9.75,
        -0.75
      ],
      "type": "VEC3"
    },
    {
      "bufferView": 1,
      "byteOffset": 10416,
      "componentType": 5126,
      "count": 24,
      "max": [
        1,
        1,
        1
      ],
      "min": [
        -1,
        -1,
        -1
      ],
      "type": "VEC3"
    },
    {
      "bufferView": 0,
      "byteOffset": 3936,
      "componentType": 5125,
      "count": 36,
      "max": [
        23
      ],
      "min": [
        0
      ],
      "type": "SCALAR"
    }
  ],
  "asset": {
    "extras": {
      "author": "alban (https://sketchfab.com/alban)",
      "license": "CC-BY-4.0 (http://creativecommons.org/licenses/by/4.0/)",
      "source": "https://sketchfab.com/models/ffd5c24f485949c6a1856502f34c3ead",
      "title": "Space Invader #1"
    },
    "generator": "Sketchfab-3.18.1",
    "version": "2.0"
  },
  "bufferViews": [
    {
      "buffer": 0,
      "byteLength": 4080,
      "byteOffset": 0,
      "name": "floatBufferViews",
      "target": 34963
    },
    {
      "buffer": 0,
      "byteLength": 10704,
      "byteOffset": 4080,
      "byteStride": 12,
      "name": "floatBufferViews",
      "target": 34962
    }
  ],
  "buffers": [
    {
      "byteLength": 14784,
      "uri": "invader.bin"
    }
  ],
  "materials": [
    {
      "doubleSided": true,
      "emissiveFactor": [
        0,
        0,
        0
      ],
      "name": "poly-1-0",
      "pbrMetallicRoughness": {
        "baseColorFactor": [
          1,
          0.33725500000000003,
          0.33725500000000003,
          1
        ],
        "metallicFactor": 0,
        "roughnessFactor": 0.59999999999999998
      }
    },
    {
      "doubleSided": true,
      "emissiveFactor": [
        0,
        0,
        0
      ],
      "name": "poly-3-0",
      "pbrMetallicRoughness": {
        "baseColorFactor": [
          1,
          0.33725500000000003,
          0.33725500000000003,
          1
        ],
        "metallicFactor": 0,
        "roughnessFactor": 0.59999999999999998
      }
    },
    {
      "doubleSided": true,
      "emissiveFactor": [
        0,
        0,
        0
      ],
      "name": "poly-4-0",
      "pbrMetallicRoughness": {
        "baseColorFactor": [
          1,
          0.33725500000000003,
          0.33725500000000003,
          1
        ],
        "metallicFactor": 0,
        "roughnessFactor": 0.59999999999999998
      }
    },
    {
      "doubleSided": true,
      "emissiveFactor": [
        0,
        0,
        0
      ],
      "name": "poly-5-0",
      "pbrMetallicRoughness": {
        "baseColorFactor": [
          1,
          0.33725500000000003,
          0.33725500000000003,
          1
        ],
        "metallicFactor": 0,
        "roughnessFactor": 0.59999999999999998
      }
    },
    {
      "doubleSided": true,
      "emissiveFactor": [
        0,
        0,
        0
      ],
      "name": "poly-6-0",
      "pbrMetallicRoughness": {
        "baseColorFactor": [
          1,
          0.33725500000000003,
          0.33725500000000003,
          1
        ],
        "metallicFactor": 0,
        "roughnessFactor": 0.59999999999999998
      }
    },
    {
      "doubleSided": true,
      "emissiveFactor": [
        0,
        0,
        0
      ],
      "name": "poly-7-0",
      "pbrMetallicRoughness": {
        "baseColorFactor": [
          1,
          0.33725500000000003,
          0.33725500000000003,
          1
        ],
        "metallicFactor": 0,
        "roughnessFactor": 0.59999999999999998
      }
    }
  ],
  "meshes": [
    {
      "name": "poly-1-0",
      "primitives": [
        {
          "attributes": {
            "NORMAL": 1,
            "POSITION": 0
          },
          "indices": 2,
          "material": 0,
          "mode": 4
        }
      ]
    },
    {
      "name": "poly-3-0",
      "primitives": [
        {
          "attributes": {
            "NORMAL": 4,
            "POSITION": 3
          },
          "indices": 5,
          "material": 1,
          "mode": 4
        }
      ]
    },
    {
      "name": "poly-4-0",
      "primitives": [
        {
          "attributes": {
            "NORMAL": 7,
            "POSITION": 6
          },
          "indices": 8,
          "material": 2,
          "mode": 4
        }
      ]
    },
    {
      "name": "poly-5-0",
      "primitives": [
        {
          "attributes": {
            "NORMAL": 10,
            "POSITION": 9
          },
          "indices": 11,
          "material": 3,
          "mode": 4
        }
      ]
    },
    {
      "name": "poly-6-0",
      "primitives": [
        {
          "attributes": {
            "NORMAL": 13,
            "POSITION": 12
          },
          "indices": 14,
          "material": 4,
          "mode": 4
        }
      ]
    },
    {
      "name": "poly-7-0",
      "primitives": [
        {
          "attributes": {
            "NORMAL": 16,
            "POSITION": 15
          },
          "indices": 17,
          "material": 5,
          "mode": 4
        }
      ]
    }
  ],
  "nodes": [
    {
      "children": [
        1
      ],
      "name": "RootNode (gltf orientation matrix)",
      "rotation": [
        -0.70710678118654746,
        -0,
        -0,
        0.70710678118654757
      ]
    },
    {
      "children": [
        2
      ],
      "name": "RootNode (model correction matrix)"
    },
    {
      "children": [
        3
      ],
      "matrix": [
        1,
        0,
        0,
        0,
        0,
        -4.3711390063094768e-08,
        0.999999999999999,
        0,
        0,
        -0.999999999999999,
        -4.3711390063094768e-08,
        0,
        0,
        0,
        0,
        1
      ],
      "name": "Collada visual scene group"
    },
    {
      "children": [
        4,
        5,
        6,
        7,
        8,
        9
      ],
      "name": "node"
    },
    {
      "mesh": 0,
      "name": "poly-1-0"
    },
    {
      "mesh": 1,
      "name": "poly-3-0"
    },
    {
      "mesh": 2,
      "name": "poly-4-0"
    },
    {
      "mesh": 3,
      "name": "poly-5-0"
    },
    {
      "mesh": 4,
      "name": "poly-6-0"
    },
    {
      "mesh": 5,
      "name": "poly-7-0"
    }
  ],
  "scene": 0,
  "scenes": [
    {
      "name": "OSG_Scene",
      "nodes": [
        0
      ]
    }
  ]
}

